<svg xmlns="http://www.w3.org/2000/svg" viewBox="0 0 360 270" role="img" aria-label="Дополнительное мясо">
  <defs>
    <radialGradient id="bg" cx="50%" cy="42%" r="75%">
      <stop offset="0%" stop-color="#2b120d"/>
      <stop offset="55%" stop-color="#171011"/>
      <stop offset="100%" stop-color="#100c0d"/>
    </radialGradient>
    <linearGradient id="meat" x1="0" y1="0" x2="0" y2="1">
      <stop offset="0%" stop-color="#B2643A"/>
      <stop offset="100%" stop-color="#84421F"/>
    </linearGradient>
    <radialGradient id="glow" cx="50%" cy="50%" r="50%">
      <stop offset="0%" stop-color="#FF6A3C" stop-opacity=".24"/>
      <stop offset="100%" stop-color="#FF6A3C" stop-opacity="0"/>
    </radialGradient>
  </defs>
  <rect width="360" height="270" fill="url(#bg)"/>
  <circle cx="180" cy="130" r="128" fill="url(#glow)"/>
  <circle cx="80" cy="58" r="2" fill="#FFB37A" opacity=".65"/>
  <circle cx="292" cy="62" r="1.8" fill="#FFD9A0" opacity=".55"/>
  <ellipse cx="180" cy="212" rx="120" ry="13" fill="#000" opacity=".4"/>
  <g transform="translate(180 140) rotate(-14)">
    <rect x="-130" y="-4" width="260" height="8" rx="4" fill="#C9B48E"/>
    <path d="M118 0 l26 -8 v16z" fill="#C9B48E"/>
    <g transform="translate(-72 0)">
      <path d="M-30 -26 q30 -14 56 4 q10 22 -6 40 q-30 12 -50 -8 q-10 -20 0 -36z" fill="url(#meat)"/>
      <path d="M-22 -12 q14 -8 30 0 M-18 8 q16 8 30 -2" stroke="#5E2C12" stroke-width="5" fill="none" stroke-linecap="round"/>
    </g>
    <g transform="translate(4 0)">
      <path d="M-28 -28 q32 -10 54 8 q8 24 -10 38 q-28 10 -46 -10 q-8 -20 2 -36z" fill="#A85B33"/>
      <path d="M-18 -12 q14 -7 28 1 M-16 8 q14 8 28 -1" stroke="#5E2C12" stroke-width="5" fill="none" stroke-linecap="round"/>
    </g>
    <g transform="translate(78 0)">
      <path d="M-26 -24 q28 -14 50 4 q10 22 -6 36 q-26 12 -44 -6 q-10 -18 0 -34z" fill="url(#meat)"/>
      <path d="M-16 -10 q12 -7 26 0 M-14 8 q12 7 24 -1" stroke="#5E2C12" stroke-width="5" fill="none" stroke-linecap="round"/>
    </g>
  </g>
  <path d="M118 74 c8 12 -6 16 0 26 4 -5 5 -7 7 -12 6 9 4 18 -6 22 -11 -4 -14 -15 -8 -25z" fill="#FF7A3C" opacity=".9"/>
  <path d="M236 66 c7 10 -5 14 0 22 3 -4 4 -6 6 -10 5 8 3 15 -5 19 -9 -3 -12 -13 -7 -21z" fill="#FFC24B" opacity=".85"/>
</svg>
