<svg xmlns="http://www.w3.org/2000/svg" viewBox="0 0 360 270" role="img" aria-label="Дополнительный сыр">
  <defs>
    <radialGradient id="bg" cx="50%" cy="42%" r="75%">
      <stop offset="0%" stop-color="#26190c"/>
      <stop offset="55%" stop-color="#171011"/>
      <stop offset="100%" stop-color="#100c0d"/>
    </radialGradient>
    <linearGradient id="cheese" x1="0" y1="0" x2="0" y2="1">
      <stop offset="0%" stop-color="#FFD866"/>
      <stop offset="100%" stop-color="#F0B93B"/>
    </linearGradient>
    <radialGradient id="glow" cx="50%" cy="50%" r="50%">
      <stop offset="0%" stop-color="#FFCE54" stop-opacity=".22"/>
      <stop offset="100%" stop-color="#FFCE54" stop-opacity="0"/>
    </radialGradient>
  </defs>
  <rect width="360" height="270" fill="url(#bg)"/>
  <circle cx="180" cy="132" r="124" fill="url(#glow)"/>
  <ellipse cx="180" cy="214" rx="118" ry="13" fill="#000" opacity=".4"/>
  <g transform="translate(196 128) rotate(-6)">
    <path d="M-92 66 l92 -110 q10 -12 24 -4 l58 40 q12 10 4 24 l-38 62 q-6 10 -18 10 h-104 q-20 0 -18 -22z" fill="url(#cheese)"/>
    <path d="M-92 66 l178 -50 -34 56 q-6 10 -18 10 h-104 q-20 0 -22 -16z" fill="#E0A82E"/>
    <circle cx="-18" cy="34" r="12" fill="#E0A82E"/>
    <circle cx="34" cy="-2" r="9" fill="#E0A82E"/>
    <circle cx="-46" cy="52" r="7" fill="#D89C24"/>
    <circle cx="52" cy="34" r="7" fill="#D89C24"/>
    <circle cx="8" cy="-30" r="6" fill="#E0A82E"/>
  </g>
  <g transform="translate(96 190) rotate(-10)">
    <rect x="-44" y="-14" width="88" height="24" rx="6" fill="#FFD866"/>
    <rect x="-44" y="-26" width="88" height="24" rx="6" fill="#FFE289"/>
    <circle cx="-16" cy="-14" r="5" fill="#F0B93B"/>
    <circle cx="20" cy="-16" r="4" fill="#F0B93B"/>
  </g>
</svg>
