<svg xmlns="http://www.w3.org/2000/svg" viewBox="0 0 360 270" role="img" aria-label="Дополнительный соус">
  <defs>
    <radialGradient id="bg" cx="50%" cy="42%" r="75%">
      <stop offset="0%" stop-color="#241710"/>
      <stop offset="55%" stop-color="#171011"/>
      <stop offset="100%" stop-color="#100c0d"/>
    </radialGradient>
    <radialGradient id="glow" cx="50%" cy="50%" r="50%">
      <stop offset="0%" stop-color="#FFC24B" stop-opacity=".2"/>
      <stop offset="100%" stop-color="#FFC24B" stop-opacity="0"/>
    </radialGradient>
  </defs>
  <rect width="360" height="270" fill="url(#bg)"/>
  <circle cx="180" cy="132" r="124" fill="url(#glow)"/>
  <ellipse cx="180" cy="212" rx="108" ry="13" fill="#000" opacity=".4"/>
  <g transform="translate(180 150)">
    <path d="M-78 -22 h156 l-10 66 q-2 16 -18 16 h-100 q-16 0 -18 -16z" fill="#F5F0E6"/>
    <path d="M-78 -22 h156 l-3 20 h-150z" fill="#DBD3C2"/>
    <ellipse cx="0" cy="-22" rx="78" ry="20" fill="#FFF8EA"/>
    <ellipse cx="0" cy="-22" rx="64" ry="15" fill="#F7E8C8"/>
    <path d="M-40 -26 q18 -16 40 -6 q24 10 42 -2 q-6 14 -26 14 q-18 0 -28 -8 q-14 -8 -28 2z" fill="#FFCE54"/>
    <circle cx="-18" cy="-24" r="3" fill="#E8503C"/>
    <circle cx="20" cy="-20" r="2.5" fill="#7CC454"/>
    <circle cx="4" cy="-28" r="2" fill="#E8503C"/>
  </g>
  <g transform="translate(84 176) rotate(-18)">
    <path d="M0 -26 q16 6 16 26 q0 18 -16 24 q-16 -6 -16 -24 q0 -20 16 -26z" fill="#F3E9D2"/>
    <path d="M0 -26 q-4 24 0 50" stroke="#DBC9A4" stroke-width="3" fill="none"/>
    <path d="M0 -26 q4 -8 10 -10" stroke="#B9A87E" stroke-width="4" stroke-linecap="round" fill="none"/>
  </g>
  <g transform="translate(278 168) rotate(14)">
    <path d="M0 -30 q6 14 12 20 a16 16 0 1 1 -24 0 q6 -6 12 -20z" fill="#E8503C"/>
    <path d="M0 -30 q-2 -8 -8 -10" stroke="#5E8C3A" stroke-width="5" stroke-linecap="round" fill="none"/>
  </g>
</svg>
