<svg xmlns="http://www.w3.org/2000/svg" viewBox="0 0 360 270" role="img" aria-label="Напитки">
  <defs>
    <radialGradient id="bg" cx="50%" cy="42%" r="75%">
      <stop offset="0%" stop-color="#121a22"/>
      <stop offset="55%" stop-color="#141013"/>
      <stop offset="100%" stop-color="#100c0d"/>
    </radialGradient>
    <linearGradient id="cup" x1="0" y1="0" x2="0" y2="1">
      <stop offset="0%" stop-color="#F45151"/>
      <stop offset="100%" stop-color="#C93A34"/>
    </linearGradient>
    <radialGradient id="glow" cx="50%" cy="50%" r="50%">
      <stop offset="0%" stop-color="#5AA7E0" stop-opacity=".2"/>
      <stop offset="100%" stop-color="#5AA7E0" stop-opacity="0"/>
    </radialGradient>
  </defs>
  <rect width="360" height="270" fill="url(#bg)"/>
  <circle cx="180" cy="130" r="128" fill="url(#glow)"/>
  <circle cx="72" cy="60" r="2" fill="#BFE0FF" opacity=".6"/>
  <circle cx="296" cy="66" r="1.8" fill="#BFE0FF" opacity=".5"/>
  <ellipse cx="180" cy="228" rx="104" ry="14" fill="#000" opacity=".4"/>
  <g transform="translate(146 60)">
    <rect x="26" y="-26" width="10" height="70" rx="5" transform="rotate(16 31 9)" fill="#5EC24A"/>
    <path d="M-42 34 l-10 -34 h104 l-10 34z" fill="#E23A34"/>
    <path d="M-56 22 h112 l-2 14 h-108z" fill="#A82B26"/>
    <rect x="-58" y="12" width="116" height="13" rx="6.5" fill="#F5F0E6"/>
    <path d="M-40 46 l-12 118 q0 16 16 16 h72 q16 0 16 -16 l-12 -118z" fill="url(#cup)"/>
    <path d="M-46 88 h92 M-43 118 h86" stroke="#A82B26" stroke-width="4" opacity=".6"/>
    <circle cx="0" cy="128" r="24" fill="#F5F0E6"/>
    <path d="M-10 128 a10 10 0 0 1 20 0 a10 10 0 0 1 -20 0z" fill="#F45151"/>
    <path d="M-30 60 q-4 40 4 96" stroke="#FF8A80" stroke-width="7" stroke-linecap="round" opacity=".55" fill="none"/>
  </g>
  <g transform="translate(252 176)">
    <path d="M-26 -18 l52 8 -6 44 q-2 12 -14 11 l-24 -3 q-12 -2 -12 -14z" fill="#EAF4FF" opacity=".92"/>
    <path d="M-26 -18 l52 8 -3 12 -51 -8z" fill="#CFE6FA"/>
    <circle cx="0" cy="18" r="7" fill="#BFE0FF"/>
  </g>
  <circle cx="112" cy="196" r="6" fill="#BFE0FF" opacity=".8"/>
  <circle cx="100" cy="176" r="4" fill="#BFE0FF" opacity=".6"/>
</svg>
