<svg xmlns="http://www.w3.org/2000/svg" viewBox="0 0 360 270" role="img" aria-label="Лаваш с сыром">
  <defs>
    <radialGradient id="bg" cx="50%" cy="42%" r="75%">
      <stop offset="0%" stop-color="#28170f"/>
      <stop offset="55%" stop-color="#171011"/>
      <stop offset="100%" stop-color="#100c0d"/>
    </radialGradient>
    <linearGradient id="bread" x1="0" y1="0" x2="0" y2="1">
      <stop offset="0%" stop-color="#F4CC80"/>
      <stop offset="100%" stop-color="#D9A24C"/>
    </linearGradient>
    <radialGradient id="glow" cx="50%" cy="50%" r="50%">
      <stop offset="0%" stop-color="#FFC24B" stop-opacity=".22"/>
      <stop offset="100%" stop-color="#FFC24B" stop-opacity="0"/>
    </radialGradient>
  </defs>
  <rect width="360" height="270" fill="url(#bg)"/>
  <circle cx="180" cy="130" r="128" fill="url(#glow)"/>
  <circle cx="72" cy="62" r="2" fill="#FFD9A0" opacity=".6"/>
  <circle cx="300" cy="70" r="1.8" fill="#FFC98F" opacity=".55"/>
  <ellipse cx="180" cy="216" rx="122" ry="14" fill="#000" opacity=".4"/>
  <g transform="translate(180 150)">
    <path d="M-120 40 a120 120 0 0 1 240 0 l-8 10 h-224z" fill="#C4883C"/>
    <path d="M-96 20 q10 -22 34 -20 l124 6 q26 4 30 34 l-188 4z" fill="#FFCE54"/>
    <path d="M-64 22 q2 20 -6 30 M-20 24 q4 18 -2 32 M28 24 q2 16 -4 30 M66 26 q4 14 0 26" stroke="#F3B93C" stroke-width="10" fill="none" stroke-linecap="round"/>
    <path d="M-118 34 a118 118 0 0 1 236 0 l-6 8 q-116 -34 -224 0z" fill="url(#bread)"/>
    <path d="M-84 -12 q8 8 20 6 M-30 -34 q8 10 20 8 M34 -32 q6 10 18 8 M78 -8 q6 8 16 6" stroke="#BE8339" stroke-width="6" fill="none" stroke-linecap="round" opacity=".75"/>
    <path d="M-58 8 q6 6 14 5 M8 -14 q6 8 16 6 M58 6 q6 6 13 5" stroke="#BE8339" stroke-width="5" fill="none" stroke-linecap="round" opacity=".55"/>
    <path d="M-102 42 q-4 26 8 34 M104 44 q6 22 -4 32" stroke="#FFCE54" stroke-width="9" fill="none" stroke-linecap="round"/>
    <g fill="#7CC454">
      <ellipse cx="-96" cy="-38" rx="10" ry="5" transform="rotate(-28 -96 -38)"/>
      <ellipse cx="96" cy="-42" rx="9" ry="4.5" transform="rotate(24 96 -42)"/>
      <ellipse cx="4" cy="-66" rx="10" ry="5" transform="rotate(-8 4 -66)"/>
    </g>
  </g>
</svg>
