<svg xmlns="http://www.w3.org/2000/svg" viewBox="0 0 360 270" role="img" aria-label="Шаурма Двойная">
  <defs>
    <radialGradient id="bg" cx="50%" cy="42%" r="75%">
      <stop offset="0%" stop-color="#2f1310"/>
      <stop offset="55%" stop-color="#171011"/>
      <stop offset="100%" stop-color="#100c0d"/>
    </radialGradient>
    <linearGradient id="bread" x1="0" y1="0" x2="0" y2="1">
      <stop offset="0%" stop-color="#F2C879"/>
      <stop offset="70%" stop-color="#E0A954"/>
      <stop offset="100%" stop-color="#C98A3E"/>
    </linearGradient>
    <linearGradient id="flame" x1="0" y1="1" x2="0" y2="0">
      <stop offset="0%" stop-color="#F45151"/>
      <stop offset="60%" stop-color="#FF7A3C"/>
      <stop offset="100%" stop-color="#FFC24B"/>
    </linearGradient>
    <radialGradient id="glow" cx="50%" cy="50%" r="50%">
      <stop offset="0%" stop-color="#FF6A3C" stop-opacity=".3"/>
      <stop offset="100%" stop-color="#FF6A3C" stop-opacity="0"/>
    </radialGradient>
  </defs>
  <rect width="360" height="270" fill="url(#bg)"/>
  <circle cx="180" cy="126" r="132" fill="url(#glow)"/>
  <path d="M180 30 c14 22 -12 30 -2 48 6 -8 10 -12 12 -22 12 16 8 34 -10 42 -20 -6 -26 -28 -14 -46 4 -8 10 -14 14 -22z" fill="url(#flame)" opacity=".95"/>
  <circle cx="66" cy="70" r="2.2" fill="#FFB37A" opacity=".7"/>
  <circle cx="306" cy="64" r="1.8" fill="#FFD9A0" opacity=".6"/>
  <circle cx="322" cy="180" r="2" fill="#FF9A6A" opacity=".5"/>
  <ellipse cx="180" cy="232" rx="130" ry="15" fill="#000" opacity=".4"/>
  <g transform="translate(196 168) rotate(-8)" opacity=".92">
    <rect x="-104" y="-36" width="192" height="72" rx="36" fill="#CE9A48"/>
    <circle cx="88" cy="0" r="36" fill="#DDA958"/>
    <circle cx="88" cy="0" r="28" fill="#EFD6A4"/>
    <circle cx="80" cy="-8" r="8" fill="#9C5230"/>
    <circle cx="96" cy="6" r="8" fill="#A85B33"/>
    <circle cx="92" cy="-8" r="6" fill="#E8503C"/>
  </g>
  <g transform="translate(164 138) rotate(-22)">
    <rect x="-112" y="-40" width="206" height="80" rx="40" fill="url(#bread)"/>
    <path d="M-112 6 a40 40 0 0 0 40 34 h128 a40 40 0 0 0 38 -28 l-206 -12z" fill="#B87B34" opacity=".45"/>
    <path d="M-52 -38 q10 38 -4 74" stroke="#C98A3E" stroke-width="7" fill="none" stroke-linecap="round" opacity=".55"/>
    <path d="M-8 -40 q12 40 -2 80" stroke="#C98A3E" stroke-width="7" fill="none" stroke-linecap="round" opacity=".5"/>
    <circle cx="94" cy="0" r="40" fill="#E9B564"/>
    <circle cx="94" cy="0" r="32" fill="#F7E3B8"/>
    <circle cx="82" cy="-8" r="9" fill="#A85B33"/>
    <circle cx="100" cy="8" r="10" fill="#9C5230"/>
    <circle cx="108" cy="-10" r="7" fill="#E8503C"/>
    <circle cx="84" cy="10" r="7" fill="#7CC454"/>
    <circle cx="98" cy="-4" r="6" fill="#FFCE54"/>
    <path d="M72 6 q10 10 24 8" stroke="#FFF3D6" stroke-width="5" fill="none" stroke-linecap="round"/>
    <path d="M-112 -18 h58 a14 14 0 0 1 14 14 v12 a34 34 0 0 1 -34 34 a40 40 0 0 1 -38 -40z" fill="#F5F0E6" opacity=".96"/>
  </g>
</svg>
