<svg xmlns="http://www.w3.org/2000/svg" viewBox="0 0 440 440" role="img" aria-label="Аппетитная шаурма ЛавашОК">
  <defs>
    <linearGradient id="bread" x1="0" y1="0" x2="0" y2="1">
      <stop offset="0%" stop-color="#F5CE7E"/>
      <stop offset="65%" stop-color="#E0A954"/>
      <stop offset="100%" stop-color="#C4842F"/>
    </linearGradient>
    <radialGradient id="glow" cx="50%" cy="50%" r="50%">
      <stop offset="0%" stop-color="#F45151" stop-opacity=".5"/>
      <stop offset="70%" stop-color="#F45151" stop-opacity=".12"/>
      <stop offset="100%" stop-color="#F45151" stop-opacity="0"/>
    </radialGradient>
    <linearGradient id="flame" x1="0" y1="1" x2="0" y2="0">
      <stop offset="0%" stop-color="#F45151"/>
      <stop offset="55%" stop-color="#FF7A3C"/>
      <stop offset="100%" stop-color="#FFC24B"/>
    </linearGradient>
  </defs>
  <circle cx="220" cy="216" r="196" fill="url(#glow)"/>
  <circle cx="84" cy="96" r="3" fill="#FFB37A" opacity=".8"/>
  <circle cx="356" cy="78" r="2.6" fill="#FFD9A0" opacity=".7"/>
  <circle cx="388" cy="216" r="2.4" fill="#FF9A6A" opacity=".6"/>
  <circle cx="52" cy="252" r="2.2" fill="#FFC98F" opacity=".6"/>
  <circle cx="330" cy="352" r="2.6" fill="#FFB37A" opacity=".55"/>
  <circle cx="120" cy="368" r="2" fill="#FFD9A0" opacity=".5"/>
  <path d="M220 52 c20 30 -16 42 -3 66 8 -11 13 -17 16 -30 17 22 12 47 -13 58 -28 -9 -36 -39 -20 -63 6 -11 14 -20 20 -31z" fill="url(#flame)" opacity=".95"/>
  <ellipse cx="220" cy="366" rx="164" ry="22" fill="#000" opacity=".45"/>
  <g transform="translate(220 240) rotate(-20)">
    <rect x="-164" y="-58" width="300" height="116" rx="58" fill="url(#bread)"/>
    <path d="M-164 10 a58 58 0 0 0 58 48 h184 a58 58 0 0 0 56 -42 l-298 -16z" fill="#B87B34" opacity=".45"/>
    <path d="M-88 -56 q14 56 -6 110" stroke="#C98A3E" stroke-width="10" fill="none" stroke-linecap="round" opacity=".55"/>
    <path d="M-24 -58 q16 58 -3 116" stroke="#C98A3E" stroke-width="10" fill="none" stroke-linecap="round" opacity=".55"/>
    <path d="M40 -56 q14 54 -6 110" stroke="#C98A3E" stroke-width="10" fill="none" stroke-linecap="round" opacity=".45"/>
    <circle cx="136" cy="0" r="58" fill="#E9B564"/>
    <circle cx="136" cy="0" r="47" fill="#F7E3B8"/>
    <circle cx="120" cy="-14" r="13" fill="#A85B33"/>
    <circle cx="144" cy="12" r="14" fill="#9C5230"/>
    <circle cx="156" cy="-16" r="10" fill="#E8503C"/>
    <circle cx="118" cy="16" r="10" fill="#7CC454"/>
    <circle cx="138" cy="-4" r="8" fill="#FFCE54"/>
    <circle cx="158" cy="8" r="7" fill="#7CC454"/>
    <path d="M106 10 q16 14 36 11" stroke="#FFF3D6" stroke-width="7" fill="none" stroke-linecap="round"/>
    <path d="M-164 -28 h88 a20 20 0 0 1 20 20 v20 a48 48 0 0 1 -48 48 h-2 a58 58 0 0 1 -58 -56z" fill="#F5F0E6" opacity=".97"/>
    <path d="M-96 -28 q-6 46 -24 58" stroke="#DBD3C2" stroke-width="4" fill="none" opacity=".8"/>
    <path d="M-150 -6 q22 10 44 6" stroke="#E8E0CE" stroke-width="4" fill="none" opacity=".7"/>
  </g>
</svg>
